<svg  xmlns="http://www.w3.org/2000/svg" xmlns:xlink="http://www.w3.org/1999/xlink" x="0px" y="0px"
	 viewBox="0 0 231.18 95.8" style="enable-background:new 0 0 231.18 95.8;" xml:space="preserve">
<g>
	<path d="M89.36,53.56c-0.47,13.38-7,25.97-20.21,34.9c-6.33,4.28-13.37,6.6-20.99,7.19c-19.15,1.49-37-9.28-44.59-26.97
		c-3.04-7.09-4.1-14.5-3.33-22.2C1.95,29.42,13.57,14.72,29.79,8.98C33.74,7.59,37.8,6.74,42,6.56c0.68-0.03,0.99-0.23,1.01-0.94
		c0.03-1.07,0.18-2.13,0.22-3.2c0.07-1.57,1.09-2.54,2.68-2.41c2.81,0.24,5.28,1.34,7.25,3.32c1.24,1.25,2.23,2.76,3.36,4.12
		c0.29,0.35,0.67,0.73,1.09,0.87c11.81,3.78,20.71,11.08,26.59,22C87.68,36.78,89.34,43.74,89.36,53.56z M41.32,11.3
		C26.08,11.96,6.7,24.75,4.75,47.92c-0.94,11.19,2.45,21.11,9.8,29.62c4.18,4.84,9.28,8.41,15.24,10.8c0.1-0.21,0.15-0.28,0.17-0.36
		c2.01-6.13,5.86-11.04,10.68-15.11c2.71-2.29,3.23-6.7,2.42-9.49c-0.49-1.68-1.05-3.34-1.62-4.99c-0.08-0.23-0.39-0.49-0.63-0.53
		c-1.1-0.16-2.24-0.13-3.33-0.37c-2.76-0.6-5.25-1.78-7.13-3.97c-0.56-0.65-1.17-0.99-1.96-1.2c-2.97-0.79-4.44-3.13-4-6.16
		c0.28-1.9,0.98-3.64,1.93-5.29c1.56-2.7,3.12-5.41,4.71-8.1c0.35-0.59,0.41-1.13,0.25-1.79c-1.63-7.05,1.5-13.63,7.38-16.75
		C39.87,13.6,40.73,12.61,41.32,11.3z M75.4,76.52c0.07,0.02,0.15,0.04,0.22,0.06c0.25-0.32,0.51-0.63,0.76-0.95
		c4.54-5.92,7.27-12.57,8.1-20c0.85-7.66-0.3-15-3.72-21.9c-5.41-10.95-14.1-18.04-25.84-21.37c-0.82-0.23-1.39-0.68-1.78-1.45
		c-0.39-0.78-0.81-1.56-1.32-2.27c-1.03-1.47-2.29-2.7-4.07-3.49c-0.08,0.3-0.15,0.53-0.2,0.75C47.28,7.27,47.08,8.66,46.7,10
		c-1.07,3.74-2.97,6.82-6.58,8.71c-1.78,0.93-2.99,2.55-3.8,4.41c-1.19,2.73-1.03,5.51-0.22,8.29c0.24,0.84,0.11,1.55-0.31,2.27
		c-1.72,2.96-3.45,5.91-5.14,8.89c-0.48,0.85-0.97,1.74-1.24,2.67c-0.54,1.86,0.01,2.66,1.9,3.01c0.85,0.16,1.39,0.63,1.85,1.35
		c0.44,0.68,0.96,1.35,1.59,1.84c1.49,1.15,3.27,1.64,5.12,1.84c0.97,0.1,1.15-0.08,1.24-1.05c0.27-2.91,1.14-5.63,2.56-8.18
		c2.58-4.65,6.4-8.1,10.79-10.96c1.27-0.83,2.8-0.29,3.39,1.14c0.46,1.13,0.86,2.29,1.33,3.54c0.31-0.27,0.53-0.51,0.8-0.69
		c1.18-0.78,2.34-1.6,3.57-2.3c0.94-0.53,1.95-0.54,2.84,0.23c0.9,0.78,0.8,1.75,0.63,2.8c-0.24,1.45-0.34,2.93-0.48,4.4
		c-0.06,0.61,0.23,1,0.77,1.32c2,1.19,3.29,2.93,3.89,5.18c0.3,1.14,0.73,2.24,1.02,3.38c0.15,0.58,0.45,0.94,0.98,1.09
		c2.36,0.7,3.16,2.33,2.85,4.65c-0.04,0.27-0.01,0.55-0.04,0.82c-0.29,2.44-1.09,4.64-3.05,6.26c-0.39,0.32-0.39,0.62-0.26,1.07
		c0.78,2.71,1.53,5.42,2.25,8.15C75.16,74.92,75.25,75.73,75.4,76.52z M54.78,38.61c-0.4,0.23-0.55,0.29-0.67,0.39
		c-1.97,1.59-3.77,3.35-5.21,5.44c-3.17,4.61-4.18,9.6-2.46,15c0.58,1.82,1.47,3.51,1.56,5.49c0.18,4.22-0.73,7.99-3.93,10.98
		c-1.32,1.23-2.65,2.47-3.86,3.81c-2.48,2.74-4.6,5.72-5.78,9.28c-0.22,0.67-0.03,0.92,0.63,1.07c5.18,1.2,10.39,1.48,15.67,0.67
		c7.31-1.12,13.77-4.07,19.49-8.71c0.51-0.41,0.73-0.87,0.74-1.53c0.06-3.52-0.63-6.93-1.68-10.26c-0.57-1.79-1.34-3.52-1.97-5.3
		c-0.34-0.98-0.09-1.69,0.73-2.32c0.34-0.26,0.73-0.5,1.12-0.68c1.06-0.5,1.71-1.33,2.06-2.43c0.55-1.77,0.47-2.01-1.18-2.75
		c-0.82-0.37-1.47-0.85-1.74-1.73c-0.31-1.02-0.66-2.03-0.9-3.07c-0.51-2.21-1.39-4.11-3.53-5.26c-1-0.54-1.49-1.58-1.68-2.71
		c-0.11-0.68-0.21-1.36-0.32-2.08c-1.04,0.7-1.56,1.45-1.39,2.75c0.15,1.05-0.04,2.19-0.28,3.25c-0.31,1.39-1.22,2.28-2.67,2.58
		c-1.26,0.26-2.46,0.02-3.63-0.37c-1.18-0.39-1.78-1.46-1.53-2.64c0.23-1.13,1.21-1.85,2.41-1.78c1.21,0.07,1.55-0.16,1.34-1.34
		C55.78,42.46,55.26,40.62,54.78,38.61z"/>
	<g>
		<g>
			<path d="M102.61,3.45c1.27,0,2.51,0.08,3.73,0.25c2.06,0.31,3.69,0.79,4.87,1.44c1.36,0.74,2.37,1.98,3.05,3.73
				c0.37,1.1,0.55,2.08,0.55,2.92c0,0.65-0.11,1.34-0.34,2.08c-0.68,1.98-1.95,3.41-3.81,4.28c-1.89,0.96-4.55,1.46-7.97,1.48
				l-2.29,0.04v4.92c0,2.52-0.01,3.93-0.04,4.24c-0.06,0.51-0.16,0.86-0.3,1.06c-0.23,0.31-0.59,0.48-1.1,0.51h-0.3
				c-0.23,0-0.37-0.01-0.42-0.04c-0.14-0.06-0.3-0.18-0.47-0.38l-0.42-0.51l-0.04-4.28v-3.18c0-3.79,0.01-6.77,0.04-8.94
				c0-3.28,0.03-5.51,0.08-6.7c0.06-0.93,0.13-1.5,0.21-1.7c0.2-0.37,0.45-0.64,0.76-0.81c0.37-0.17,0.82-0.27,1.36-0.3
				C100.76,3.49,101.71,3.45,102.61,3.45z M100.41,16.21h2.84c1.61,0,2.84-0.08,3.69-0.25c0.82-0.11,1.62-0.4,2.42-0.85
				c0.85-0.45,1.45-1.07,1.82-1.86c0.25-0.56,0.38-1.1,0.38-1.61c0-0.37-0.03-0.64-0.08-0.81c-0.34-1.3-0.86-2.2-1.57-2.71
				c-0.76-0.54-2.13-0.99-4.11-1.36c-1.05-0.23-2.33-0.34-3.86-0.34c-0.88,0-1.36,0.07-1.44,0.21c-0.08,0.08-0.13,1.03-0.13,2.84
				v2.08L100.41,16.21z"/>
			<path d="M122.91,3.58c0.88,0,1.73-0.01,2.56-0.02c0.83-0.01,1.55-0.01,2.14,0.02c0.82,0.03,1.36,0.18,1.61,0.47
				c0.28,0.25,0.42,0.57,0.42,0.93c0,0.23-0.03,0.4-0.08,0.51c-0.2,0.59-0.59,0.95-1.19,1.06c-0.48,0.06-2.56,0.13-6.23,0.21
				l-5.72,0.08l0.08,3.39c0.06,2.29,0.1,3.45,0.13,3.48c0.06,0.08,2.08,0.13,6.06,0.13c4.04,0,6.19,0.06,6.44,0.17
				c0.42,0.23,0.68,0.55,0.76,0.98v0.17c0,0.45-0.14,0.83-0.42,1.14l-0.38,0.42l-12.5,0.17l0.04,0.55l0.21,4.96l0.21,4.37l2.59,0.08
				c1.55,0.03,3.66-0.04,6.31-0.21l3.18-0.21c0.51,0,0.86,0.06,1.06,0.17c0.4,0.17,0.65,0.44,0.76,0.81
				c0.06,0.17,0.08,0.4,0.08,0.68c0,0.48-0.16,0.86-0.47,1.14c-0.28,0.23-0.99,0.38-2.12,0.47l-1.86,0.21
				c-0.08,0.06-2.05,0.1-5.89,0.13l-5.76,0.04l-0.51-0.51c-0.23-0.25-0.37-0.48-0.42-0.68c-0.08-0.4-0.16-0.89-0.21-1.48
				c-0.11-1.24-0.18-5.2-0.21-11.87l-0.04-5.72l0.04-3.01c0-1.13,0.06-1.82,0.17-2.08l0.04-0.04c0.23-0.48,0.59-0.76,1.1-0.85
				c0.65-0.11,2.43-0.18,5.34-0.21h0.51C121.77,3.62,122.49,3.61,122.91,3.58z"/>
			<path d="M145.29,3.66c2.54,0,3.96,0.08,4.24,0.25c0.45,0.2,0.75,0.52,0.89,0.98c0.06,0.23,0.08,0.38,0.08,0.47
				c0,0.28-0.08,0.55-0.25,0.81c-0.28,0.37-0.68,0.59-1.19,0.68c-0.51,0.08-1.84,0.13-3.98,0.13c-2.66,0-4.01,0.04-4.07,0.13
				c0,0.03-0.01,0.09-0.02,0.19c-0.01,0.1-0.02,0.29-0.02,0.57l0.08,3.43c0.14,3.25,0.25,6.84,0.34,10.77l0.08,5.68
				c-0.06,0.82-0.13,1.31-0.21,1.48c-0.17,0.37-0.35,0.61-0.55,0.72c-0.2,0.11-0.49,0.17-0.89,0.17c-0.45,0-0.83-0.16-1.14-0.47
				c-0.2-0.25-0.33-0.49-0.38-0.72c-0.03-0.08-0.04-0.38-0.04-0.89l-0.04-0.89c0-7.85-0.07-13.42-0.21-16.7l-0.13-3.31l-3.56-0.04
				c-1.33,0-2.37-0.04-3.14-0.13c-0.37-0.06-0.66-0.14-0.89-0.25c-0.2-0.11-0.33-0.25-0.38-0.42l-0.13-0.76
				c0-0.45,0.01-0.72,0.04-0.81c0.06-0.14,0.18-0.27,0.38-0.38c0.23-0.14,0.62-0.23,1.19-0.25c0.59-0.03,2.1-0.07,4.54-0.13
				c3.45-0.03,5.24-0.08,5.38-0.17C141.39,3.7,142.72,3.66,145.29,3.66z"/>
			<path d="M162.16,3.49c1.1,0,1.89,0.24,2.37,0.72c0.14,0.14,0.24,0.42,0.3,0.85c0,0.42-0.08,0.76-0.25,1.02
				c-0.17,0.2-0.42,0.37-0.76,0.51c-0.37,0.11-2.27,0.2-5.72,0.25c-3.45,0.08-5.31,0.16-5.59,0.21c-0.11,0.03-0.18,0.1-0.21,0.21
				v0.17c0,0.31,0.01,0.58,0.04,0.81c0.14,1.02,0.23,2.13,0.25,3.35l0.08,2.16l4.37-0.04c0.79-0.03,1.77-0.04,2.92-0.04
				c0.9,0,1.47,0.01,1.7,0.04c0.65,0.03,1.12,0.17,1.4,0.42c0.37,0.28,0.55,0.65,0.55,1.1c0,0.65-0.21,1.09-0.64,1.31
				c-0.14,0.08-0.54,0.16-1.19,0.21c-0.73,0.06-2.06,0.08-3.98,0.08c-3.11,0-4.73,0.07-4.87,0.21c-0.08,0.11-0.13,0.55-0.13,1.31
				c0,0.54,0.03,1.34,0.08,2.42c0.08,1.95,0.13,3.22,0.13,3.81v4.2c-0.06,0.51-0.14,0.86-0.25,1.06c-0.25,0.42-0.65,0.64-1.19,0.64
				c-0.71,0-1.23-0.25-1.57-0.76c-0.11-0.2-0.2-0.59-0.25-1.19c-0.03-0.25-0.04-1.19-0.04-2.8V23.5v-2.33c0-1.7-0.03-3.62-0.08-5.76
				l-0.25-6.99l-0.13-3.31c0-0.37,0.08-0.64,0.23-0.83c0.16-0.18,0.45-0.28,0.87-0.28l4.79-0.13c3.31-0.08,5.13-0.17,5.47-0.25
				C161.18,3.53,161.7,3.49,162.16,3.49z"/>
			<path d="M174.96,3.45c1.92,0,3.31,0.13,4.15,0.38c0.76,0.28,1.65,0.82,2.67,1.61c1.1,0.82,2.15,1.95,3.14,3.39
				c0.9,1.36,1.55,2.75,1.95,4.2c0.14,0.65,0.21,1.48,0.21,2.5c0,2.23-0.23,4.2-0.68,5.89c-0.45,1.47-1.12,2.78-1.99,3.94
				c-1.72,2.29-3.79,3.77-6.19,4.45c-0.51,0.17-1.13,0.25-1.86,0.25c-1.19,0-2.2-0.11-3.05-0.34c-1.36-0.51-2.43-1-3.22-1.48
				c-0.96-0.62-1.89-1.38-2.8-2.29c-0.73-0.73-1.19-1.23-1.36-1.48c-0.34-0.34-0.59-0.75-0.76-1.23c-0.76-1.61-1.14-3.29-1.14-5.04
				c0-3.93,0.97-7.29,2.92-10.09c0.51-0.73,0.92-1.26,1.23-1.57c0.14-0.14,0.61-0.55,1.4-1.23c0.65-0.54,1.13-0.88,1.44-1.02
				c0.4-0.23,0.96-0.44,1.7-0.64C173.27,3.52,174.02,3.45,174.96,3.45z M167.45,20.44c0.14,0.57,0.45,1.26,0.93,2.08
				c0.48,0.71,1.16,1.4,2.03,2.08c0.93,0.71,1.89,1.27,2.88,1.7c0.54,0.25,0.96,0.41,1.27,0.47c0.4,0.06,0.86,0.08,1.4,0.08
				c0.71,0,1.2-0.03,1.48-0.08c0.23-0.03,0.64-0.2,1.23-0.51c0.79-0.4,1.37-0.78,1.74-1.14c0.37-0.28,0.82-0.82,1.36-1.61
				c0.48-0.68,0.82-1.2,1.02-1.57c0.14-0.45,0.27-0.76,0.38-0.93c0.45-0.88,0.68-2.54,0.68-5c0-1.13-0.06-2.06-0.17-2.8
				c-0.11-0.34-0.55-1.13-1.31-2.37c-1.21-2.01-2.85-3.42-4.92-4.24c-0.88-0.31-1.58-0.47-2.12-0.47c-0.68,0.06-1.44,0.24-2.29,0.55
				c-0.93,0.4-1.82,1.05-2.67,1.95c-0.9,1.07-1.61,2.26-2.12,3.56c-0.42,0.96-0.69,1.79-0.81,2.5c-0.11,0.96-0.17,1.96-0.17,3.01
				C167.28,18.79,167.34,19.71,167.45,20.44z"/>
			<path d="M197.67,3.45c1.92,0,3.31,0.13,4.15,0.38c0.76,0.28,1.65,0.82,2.67,1.61c1.1,0.82,2.15,1.95,3.14,3.39
				c0.9,1.36,1.55,2.75,1.95,4.2c0.14,0.65,0.21,1.48,0.21,2.5c0,2.23-0.23,4.2-0.68,5.89c-0.45,1.47-1.12,2.78-1.99,3.94
				c-1.72,2.29-3.79,3.77-6.19,4.45c-0.51,0.17-1.13,0.25-1.86,0.25c-1.19,0-2.2-0.11-3.05-0.34c-1.36-0.51-2.43-1-3.22-1.48
				c-0.96-0.62-1.89-1.38-2.8-2.29c-0.74-0.73-1.19-1.23-1.36-1.48c-0.34-0.34-0.59-0.75-0.76-1.23c-0.76-1.61-1.14-3.29-1.14-5.04
				c0-3.93,0.98-7.29,2.92-10.09c0.51-0.73,0.92-1.26,1.23-1.57c0.14-0.14,0.61-0.55,1.4-1.23c0.65-0.54,1.13-0.88,1.44-1.02
				c0.4-0.23,0.96-0.44,1.7-0.64C195.99,3.52,196.74,3.45,197.67,3.45z M190.17,20.44c0.14,0.57,0.45,1.26,0.93,2.08
				c0.48,0.71,1.16,1.4,2.03,2.08c0.93,0.71,1.89,1.27,2.88,1.7c0.54,0.25,0.96,0.41,1.27,0.47c0.4,0.06,0.86,0.08,1.4,0.08
				c0.71,0,1.2-0.03,1.48-0.08c0.23-0.03,0.64-0.2,1.23-0.51c0.79-0.4,1.37-0.78,1.74-1.14c0.37-0.28,0.82-0.82,1.36-1.61
				c0.48-0.68,0.82-1.2,1.02-1.57c0.14-0.45,0.27-0.76,0.38-0.93c0.45-0.88,0.68-2.54,0.68-5c0-1.13-0.06-2.06-0.17-2.8
				c-0.11-0.34-0.55-1.13-1.31-2.37c-1.21-2.01-2.85-3.42-4.92-4.24c-0.88-0.31-1.58-0.47-2.12-0.47c-0.68,0.06-1.44,0.24-2.29,0.55
				c-0.93,0.4-1.82,1.05-2.67,1.95c-0.9,1.07-1.61,2.26-2.12,3.56c-0.42,0.96-0.69,1.79-0.8,2.5c-0.11,0.96-0.17,1.96-0.17,3.01
				C190,18.79,190.06,19.71,190.17,20.44z"/>
			<path d="M211.66,3.45l2.46,0.08c2.15,0.08,3.39,0.18,3.73,0.3c1.53,0.51,2.91,1.07,4.15,1.7c0.73,0.34,1.61,1.02,2.63,2.03
				c1.02,1.07,1.71,1.95,2.08,2.63c0.56,1.16,0.95,2.25,1.14,3.26c0.23,1.13,0.34,2.4,0.34,3.81c0,1.64-0.17,2.95-0.51,3.94
				c-0.37,0.96-1.09,2.19-2.16,3.69c-0.79,1.05-1.85,1.94-3.18,2.67c-1.41,0.73-3.29,1.36-5.64,1.86c-2.29,0.54-4.17,0.73-5.64,0.59
				c-0.45-0.06-0.74-0.1-0.85-0.13c-0.2-0.08-0.37-0.23-0.51-0.42c-0.37-0.42-0.58-1-0.64-1.74c-0.06-0.73-0.08-2.25-0.08-4.53
				l0.04-6.57c0.06-7.49,0.14-11.41,0.25-11.78c0.08-0.28,0.24-0.56,0.47-0.85c0.23-0.25,0.47-0.41,0.72-0.47
				C210.7,3.48,211.09,3.45,211.66,3.45z M212.42,26.8c0.08,0.11,0.93,0,2.54-0.34c3.67-0.79,6.05-1.67,7.12-2.63
				c0.31-0.28,0.79-0.9,1.44-1.86c0.59-0.93,0.96-1.61,1.1-2.03c0.2-0.56,0.3-1.55,0.3-2.97c0-1.33-0.11-2.33-0.34-3.01
				c-0.37-1.24-0.66-2.08-0.89-2.5c-0.2-0.4-0.65-0.93-1.36-1.61c-0.68-0.68-1.17-1.12-1.48-1.31c-0.57-0.31-1.14-0.59-1.74-0.85
				l-0.42-0.21c-0.08-0.03-0.16-0.06-0.23-0.08c-0.07-0.03-0.13-0.06-0.19-0.08l-0.25-0.13c-0.2-0.08-0.59-0.21-1.19-0.38
				c-0.59-0.14-1.46-0.25-2.58-0.34h-0.76c-0.68,0-1.06,0.04-1.14,0.13c-0.08,0.11-0.13,1.57-0.13,4.37c0,2.32,0.01,4.25,0.04,5.81
				C212.28,23.23,212.34,26.58,212.42,26.8z"/>
		</g>
	</g>
	<g>
		<path d="M99.12,61.43c0.35-0.18,1.17-0.26,2.44-0.26h1.85l0.13-6.67l0.07-3.23c0-0.88,0.01-1.64,0.03-2.28
			c0.02-0.64,0.01-1.07-0.03-1.29c-0.04-0.09-0.7-0.15-1.98-0.2c-0.92-0.09-1.47-0.18-1.65-0.26c-0.26-0.09-0.57-0.33-0.92-0.73
			c-0.48-0.62-0.73-1.03-0.73-1.25c0-0.26,0.15-0.62,0.46-1.06c0.22-0.4,0.46-0.68,0.73-0.86c0.4-0.18,1.96-0.29,4.69-0.33
			l11.02-0.2c3.21,0,5.1,0.02,5.68,0.07c0.88,0.09,1.43,0.2,1.65,0.33c0.48,0.35,0.77,0.59,0.86,0.73c0.09,0.26,0.13,0.64,0.13,1.12
			c0,0.66-0.24,1.23-0.73,1.72c-0.48,0.44-1.14,0.66-1.98,0.66h-0.13c-0.88,0-1.43,0.24-1.65,0.73c-0.13,0.4-0.24,2.2-0.33,5.41
			c-0.04,0.13-0.07,0.29-0.07,0.46v2.57c0,2.24,0.07,3.48,0.2,3.7c0.22,0.22,0.7,0.33,1.45,0.33c1.98,0,3.3,0.53,3.96,1.58
			c0.26,0.44,0.4,0.88,0.4,1.32c0,0.7-0.4,1.32-1.19,1.85c-0.26,0.13-1.06,0.24-2.38,0.33c-0.88,0.04-4.11,0.07-9.7,0.07
			c-5.85,0-9.15-0.02-9.9-0.07c-1.23-0.09-2-0.24-2.31-0.46c-0.7-0.4-1.06-1.06-1.06-1.98C98.13,62.36,98.46,61.74,99.12,61.43z
			 M106.84,84.66c0-0.53,0.26-1.1,0.79-1.72c0.66-0.7,2.99-2.71,7-6.01c1.58-1.32,2.77-2.42,3.56-3.3c0.66-0.79,1.19-1.74,1.58-2.84
			c0.7-1.89,1.34-2.99,1.91-3.3c0.31-0.18,0.64-0.26,0.99-0.26c0.57,0,1.1,0.22,1.58,0.66c0.4,0.31,0.62,0.55,0.66,0.73
			c0.04,0.13,0.07,0.62,0.07,1.45c0,0.84,0.04,1.47,0.13,1.91c0.04,0.13,0.55,0.55,1.52,1.25c0.79,0.62,1.5,1.06,2.11,1.32
			l0.99,0.53c0.13,0.09,0.41,0.27,0.82,0.56c0.42,0.29,1.11,0.72,2.08,1.29c0.7,0.44,1.78,1.14,3.23,2.11l3.3,2.05
			c1.58,0.97,2.38,1.91,2.38,2.84c0,0.53-0.22,1.01-0.66,1.45c-0.4,0.4-0.86,0.59-1.39,0.59c-0.31,0-0.53-0.02-0.66-0.07
			c-0.66-0.18-2.18-0.99-4.55-2.44l-3.96-2.24c-1.98-1.01-3.92-2.16-5.81-3.43l-2.31-1.52l-1.12,1.06c-1.58,1.5-3.17,2.9-4.75,4.22
			c-1.23,1.01-2.27,1.87-3.1,2.57c-1.32,1.1-2.11,1.72-2.38,1.85c-0.44,0.22-1.03,0.33-1.78,0.33c-0.79,0-1.32-0.07-1.58-0.2
			c-0.26-0.13-0.46-0.44-0.59-0.92C106.86,85.06,106.84,84.88,106.84,84.66z M108.56,56.22l0.2,4.82h2.18
			c1.41,0,2.22-0.11,2.44-0.33c0.22-0.22,0.35-2.42,0.4-6.6l0.13-6.34c-0.04-0.04-0.73-0.11-2.05-0.2c-1.45,0-2.29,0.02-2.51,0.07
			l-0.86,0.2l-0.07,1.78C108.38,50.76,108.43,52.96,108.56,56.22z M141.69,40.78c0.48,0.04,0.86,0.2,1.12,0.46
			c0.18,0.18,0.26,3.19,0.26,9.04v4.16c0,6.25-0.02,9.88-0.07,10.89c-0.09,1.63-0.2,2.57-0.33,2.84c-0.4,0.7-0.9,1.1-1.52,1.19
			l-0.33,0.07c-0.44,0-0.92-0.22-1.45-0.66l-0.79-0.73l-0.13-5.87l-0.13-5.81l-2.9-0.07c-1.89,0-3.01,0.07-3.37,0.2
			c-0.18,0.13-0.31,0.44-0.4,0.92c-0.04,0.35-0.07,1.85-0.07,4.49c0,3.21-0.04,5.04-0.13,5.48c-0.09,0.26-0.37,0.51-0.86,0.73
			c-0.44,0.26-0.9,0.4-1.39,0.4c-0.53,0-1.03-0.18-1.52-0.53c-0.48-0.35-0.77-0.77-0.86-1.25c-0.04-0.22-0.07-1.23-0.07-3.04
			c0-3.43,0.04-6.51,0.13-9.24c0.22-7.52,0.4-11.46,0.53-11.81c0.26-0.7,0.77-1.19,1.52-1.45c0.13-0.04,0.33-0.07,0.59-0.07
			c0.53,0,0.97,0.15,1.32,0.46c0.35,0.18,0.55,0.51,0.59,0.99c0.04,0.22,0.07,0.9,0.07,2.05l0.07,2.05
			c0.09,3.08,0.18,4.69,0.26,4.82c0.09,0.09,0.68,0.13,1.78,0.13c2.95,0,4.49-0.07,4.62-0.2c0.22-0.22,0.35-1.85,0.4-4.88
			c0.04-1.5,0.13-2.82,0.26-3.96c0.09-0.66,0.2-1.06,0.33-1.19c0.35-0.35,0.68-0.55,0.99-0.59
			C140.63,40.73,141.12,40.73,141.69,40.78z"/>
		<path d="M145.45,68.63c0.4-0.22,1.47-0.35,3.23-0.4c1.58-0.09,5.15-0.13,10.69-0.13h7.59c10.34,0.04,16.48,0.15,18.41,0.33
			c0.7,0.04,1.39,0.13,2.05,0.26c0.31,0.04,0.59,0.24,0.86,0.59c0.4,0.44,0.59,1.01,0.59,1.72c0,0.7-0.2,1.25-0.59,1.65
			c-0.44,0.35-1.19,0.57-2.24,0.66c-1.06,0.04-3.46-0.02-7.19-0.2l-6.2-0.13c-2.16,0-3.37,0.24-3.63,0.73
			c-0.13,0.26-0.24,2.6-0.33,7c-0.04,1.85-0.09,3.04-0.13,3.56c-0.04,0.66-0.18,1.17-0.4,1.52c-0.31,0.44-0.88,0.68-1.72,0.73
			c-0.62,0-0.99-0.02-1.12-0.07c-0.18-0.04-0.42-0.26-0.73-0.66c-0.44-0.44-0.66-0.81-0.66-1.12v-0.99c0-1.23-0.02-3-0.07-5.31
			c-0.04-2.31-0.09-3.99-0.13-5.05c-0.09-0.22-0.7-0.35-1.85-0.4c-2.51-0.13-5.06-0.22-7.66-0.26c-4.27-0.04-6.86-0.15-7.79-0.33
			c-0.84-0.04-1.36-0.4-1.58-1.06c-0.09-0.18-0.13-0.44-0.13-0.79c0-0.31,0.02-0.55,0.07-0.73
			C144.92,69.18,145.14,68.8,145.45,68.63z M151.98,40.44l2.77,0.07l15.44,0.26l11.55,0.2l0.66,0.59c0.48,0.48,0.75,1.03,0.79,1.65
			c0.04,0.44,0.04,0.75,0,0.92c-0.04,0.18-0.26,0.46-0.66,0.86l-0.73,0.73h-2.97c-1.5,0-2.33,0.02-2.51,0.07
			c-0.31,0.04-0.48,0.2-0.53,0.46c-0.13,0.7-0.22,2.46-0.26,5.28l-0.07,4.36c0,1.67,0.07,2.57,0.2,2.71
			c0.22,0.22,1.3,0.33,3.23,0.33c1.94,0,3.21,0.18,3.83,0.53c0.79,0.53,1.19,1.21,1.19,2.05c0,0.79-0.33,1.39-0.99,1.78l-0.86,0.59
			l-16.17-0.13c-10.74-0.09-16.28-0.22-16.63-0.4c-0.75-0.4-1.23-1.03-1.45-1.91c-0.04-0.13-0.07-0.33-0.07-0.59
			c0-0.62,0.22-1.08,0.66-1.39c0.26-0.18,0.64-0.31,1.12-0.4c0.31-0.04,1.25-0.07,2.84-0.07c2.29-0.09,3.48-0.18,3.56-0.26
			c0.22-0.22,0.35-2.77,0.4-7.66c0-2.64-0.02-4.16-0.07-4.55c-0.09-0.57-0.2-0.88-0.33-0.92c-0.26-0.09-1.34-0.22-3.23-0.4
			c-1.76-0.13-2.86-0.33-3.3-0.59c-0.53-0.35-0.79-0.99-0.79-1.91c0-1.14,0.48-1.85,1.45-2.11
			C150.42,40.49,151.06,40.44,151.98,40.44z M161.22,49.55c0,0.31,0.03,0.81,0.1,1.52c0.07,0.7,0.1,1.32,0.1,1.85
			c0.04,3.65,0.18,5.54,0.4,5.68c0.13,0.22,1.96,0.33,5.48,0.33c1.76,0,2.73-0.09,2.9-0.26c0.18-0.26,0.29-2.77,0.33-7.52v-2.38
			c0-1.85-0.04-2.81-0.13-2.9c-0.44-0.18-2.55-0.26-6.34-0.26c-1.36,0-2.22,0.04-2.57,0.13c-0.26,0.13-0.4,0.29-0.4,0.46l-0.07,0.53
			C161.03,47.6,161.09,48.54,161.22,49.55z"/>
		<path d="M186.24,78.33c0.44-0.53,0.86-0.81,1.25-0.86c0.53-0.09,7.63-0.13,21.32-0.13l8.71,0.07c4.88,0,7.81,0.02,8.78,0.07
			c2.33,0.09,3.63,0.2,3.89,0.33c0.66,0.31,0.99,0.88,0.99,1.72c0,0.35-0.02,0.62-0.07,0.79c-0.04,0.57-0.37,0.99-0.99,1.25
			c-0.53,0.26-2.05,0.35-4.55,0.26c-2.02-0.09-9.09-0.18-21.19-0.26l-17.62-0.13c-0.22,0-0.46-0.22-0.73-0.66
			c-0.31-0.35-0.46-0.68-0.46-0.99C185.58,79.3,185.8,78.81,186.24,78.33z M208.74,45.06l13.07,0.07l0.59,0.73
			c0.4,0.44,0.59,0.99,0.59,1.65c0,0.57-0.2,1.1-0.59,1.58l-0.59,0.66l-4.49-0.33c-3.65-0.22-7.7-0.33-12.14-0.33
			c-1.14-0.04-2.55-0.07-4.22-0.07c-1.19,0-1.94,0.02-2.24,0.07c-0.92,0.09-1.43,0.2-1.52,0.33c-0.13,0.26-0.2,1.63-0.2,4.09v2.9
			c0.04,4.31,0.15,6.56,0.33,6.73c0.04,0.09,4.2,0.18,12.47,0.26l12.28,0.07l0.66,0.79c0.48,0.57,0.73,1.08,0.73,1.52
			c0,0.35-0.09,0.68-0.26,0.99c-0.26,0.53-1.03,0.84-2.31,0.92c-1.32,0.09-3.79,0.13-7.39,0.13h-4.95c-7.39,0-11.79-0.07-13.2-0.2
			c-1.32-0.13-2.22-0.59-2.71-1.39c-0.22-0.48-0.35-1.17-0.4-2.05c-0.04-0.62-0.07-3.08-0.07-7.39c0-5.32,0.13-8.54,0.4-9.64
			c0.18-1.06,0.95-1.72,2.31-1.98C195.5,45.11,200.12,45.06,208.74,45.06z"/>
	</g>
</g>
</svg>
